<svg xmlns="http://www.w3.org/2000/svg" viewBox="0 0 512 502"><path d="M0 149l256 84v18L0 167z" fill="#e2e3e5"/><path d="M512 149l-256 84v18l256-84z" fill="#afb7ba"/><path d="M0 167l256 83.94V502L0 420.95z" fill="#f0f2f4"/><path d="M512 167l-256 83.93V502l256-81.06z" fill="#d1d5d8"/><path d="M0 87l256 83.08v62.8L0 149z" fill="#3375d6"/><path d="M512 87l-256 83.11v62.8L512 149z" fill="#2457a3"/><path d="M0 87L256 3v167L0 87zM512 87L256 3v167l256-83z" fill="#4f87db"/><path d="M176.19 46.39l199.89 66-48.91 16L130 62z" fill="#2457a3"/><path d="M173 0l146 43.37v81.45L173 76V0z" fill="#fcfcfc"/></svg>